<svg xmlns="http://www.w3.org/2000/svg" viewBox="0 0 512 512">
  <defs>
    <linearGradient id="g" x1="0" y1="0" x2="1" y2="1">
      <stop offset="0" stop-color="#FF8A00"/><stop offset="1" stop-color="#FF5E62"/>
    </linearGradient>
  </defs>
  <rect width="512" height="512" rx="112" fill="#070B14"/>
  <g transform="translate(256 256) rotate(-45) translate(-256 -256)">
    <path d="M256 96c54 40 78 96 78 168 0 28-8 54-22 78H200c-14-24-22-50-22-78 0-72 24-128 78-168z" fill="url(#g)"/>
    <circle cx="256" cy="232" r="30" fill="#9B5CF6"/>
    <path d="M178 300l-44 56 60-18zM334 300l44 56-60-18z" fill="#FF8A00"/>
    <path d="M226 342h60l-14 64-16 22-16-22z" fill="#FFD166"/>
  </g>
</svg>
