<svg xmlns="http://www.w3.org/2000/svg" viewBox="0 0 512 512">
  <defs>
    <linearGradient id="bg" x1="0" y1="0" x2="1" y2="1">
      <stop offset="0" stop-color="#1a0033"/>
      <stop offset="1" stop-color="#3d0a4d"/>
    </linearGradient>
    <linearGradient id="s" x1="0" y1="0" x2="0" y2="1">
      <stop offset="0" stop-color="#ff2d55"/>
      <stop offset="1" stop-color="#ff6b3d"/>
    </linearGradient>
    <filter id="glow"><feGaussianBlur stdDeviation="10" result="b"/>
      <feMerge><feMergeNode in="b"/><feMergeNode in="SourceGraphic"/></feMerge></filter>
  </defs>
  <rect width="512" height="512" rx="110" fill="url(#bg)"/>
  <path filter="url(#glow)" fill="url(#s)" d="M330 150c-18-18-46-28-80-28-58 0-96 30-96 78 0 44 32 64 84 76 38 9 52 17 52 36 0 20-19 32-46 32-30 0-54-13-70-33l-34 40c24 28 62 45 104 45 62 0 102-32 102-82 0-46-32-66-86-79-36-9-50-16-50-33 0-18 17-29 42-29 26 0 47 11 60 27z"/>
</svg>
